<?xml version="1.0" encoding="UTF-8" standalone="no"?>
<!-- Created with Inkscape (http://www.inkscape.org/) -->

<svg
   xmlns:dc="http://purl.org/dc/elements/1.1/"
   xmlns:cc="http://creativecommons.org/ns#"
   xmlns:rdf="http://www.w3.org/1999/02/22-rdf-syntax-ns#"
   xmlns:svg="http://www.w3.org/2000/svg"
   xmlns="http://www.w3.org/2000/svg"
   xmlns:sodipodi="http://sodipodi.sourceforge.net/DTD/sodipodi-0.dtd"
   xmlns:inkscape="http://www.inkscape.org/namespaces/inkscape"
   version="1.1"
   id="svg2"
   width="1626.3693"
   height="1734.2496"
   viewBox="0 0 1626.3693 1734.2496"
   sodipodi:docname="penguinlogowhite.svg"
   inkscape:version="0.92.4 (5da689c313, 2019-01-14)">
  <metadata
     id="metadata8">
    <rdf:RDF>
      <cc:Work
         rdf:about="">
        <dc:format>image/svg+xml</dc:format>
        <dc:type
           rdf:resource="http://purl.org/dc/dcmitype/StillImage" />
        <dc:title></dc:title>
      </cc:Work>
    </rdf:RDF>
  </metadata>
  <defs
     id="defs6" />
  <sodipodi:namedview
     pagecolor="#ffffff"
     bordercolor="#666666"
     borderopacity="1"
     objecttolerance="10"
     gridtolerance="10"
     guidetolerance="10"
     inkscape:pageopacity="0"
     inkscape:pageshadow="2"
     inkscape:window-width="1920"
     inkscape:window-height="1001"
     id="namedview4"
     showgrid="false"
     inkscape:zoom="0.417193"
     inkscape:cx="704.28508"
     inkscape:cy="528.60105"
     inkscape:window-x="-9"
     inkscape:window-y="-9"
     inkscape:window-maximized="1"
     inkscape:current-layer="svg2"
     fit-margin-top="0"
     fit-margin-left="0"
     fit-margin-right="0"
     fit-margin-bottom="0" />
  <path
     style="fill:#ffffff;fill-opacity:1;stroke:#000000;stroke-width:0;stroke-miterlimit:4;stroke-dasharray:none;stroke-opacity:0"
     d="m 819.38379,850.58427 c -0.81054,-28.42767 -2.52662,-43.64337 -7.40455,-65.65254 -6.28046,-28.3374 -16.08568,-51.78799 -27.45518,-65.66296 -2.37021,-2.89254 -4.30948,-5.76195 -4.30948,-6.37649 0,-1.41692 -20.50756,-16.07686 -27.24001,-19.47265 -8.90483,-4.49153 -20.17424,-6.54308 -35.68051,-6.49546 -31.02335,0.0953 -57.49105,11.24328 -81.02647,34.12785 -9.48621,9.22388 -22.08938,24.20027 -24.89502,29.58285 -0.90926,1.74441 -2.57924,4.25029 -3.71108,5.56862 -1.13183,1.31834 -4.14245,6.90838 -6.69025,12.42232 -2.54781,5.51394 -4.81729,9.47061 -5.0433,8.79259 -0.72259,-2.16776 6.93881,-26.65841 13.76016,-43.98614 25.20134,-64.01693 61.88819,-112.37402 112.69953,-148.54971 5.43813,-3.87174 9.88751,-7.72547 9.88751,-8.56384 0,-1.79457 0.10547,-1.75969 -19.17578,-6.3406 -35.8262,-8.51171 -58.72582,-20.17836 -58.72582,-29.919 0,-3.2421 0.82204,-4.20031 6.29206,-7.33432 8.92319,-5.1125 24.04644,-10.36298 38.35139,-13.31481 16.29517,-3.36251 45.73741,-2.80527 63.2203,1.19654 17.56204,4.01993 37.81976,11.19153 52.71696,18.66276 10.53981,5.28591 13.7636,6.43741 14.54992,5.19708 0.55557,-0.87636 1.00505,-2.1327 0.99884,-2.79187 -0.006,-0.65917 -7.34792,-9.55793 -16.31492,-19.77502 -33.80609,-38.51904 -49.48637,-63.71834 -41.54497,-66.76574 6.68856,-2.56664 33.90399,5.7414 47.6843,14.55657 18.7945,12.02269 35.76575,36.80754 46.53146,67.95464 l 3.8414,11.11385 14.45721,3.22464 c 35.10853,7.83085 61.21166,19.75728 88.61259,40.48679 10.64398,8.05245 34.40162,31.56478 44.34252,43.88467 27.0609,33.53683 51.0147,81.49135 63.5471,127.21822 2.2928,8.36603 4.1688,15.9816 4.1688,16.92349 0,0.94189 -3.5417,-5.18616 -7.8704,-13.6179 -9.0208,-17.57091 -18.9533,-30.88579 -34.521,-46.27671 -15.0331,-14.86224 -34.8968,-26.15286 -55.41215,-31.49643 -10.69063,-2.78455 -42.38901,-2.52101 -50.94763,0.42359 -9.83633,3.38419 -17.87649,7.77689 -25.72894,14.05688 -6.82622,5.45924 -19.79201,19.49155 -20.726,22.43084 -0.2487,0.78262 -1.38534,2.5016 -2.52591,3.81993 -3.08893,3.57041 -15.04783,33.32285 -17.89936,44.53167 -6.06326,23.83345 -9.65104,55.21867 -9.67159,84.60521 -0.007,9.72271 -0.22314,17.67766 -0.48074,17.67766 -0.25759,0 -2.81936,-1.06679 -5.69281,-2.37065 -3.71727,-1.68675 -7.81752,-2.37065 -14.21309,-2.37065 -6.39556,0 -10.49581,0.6839 -14.21308,2.37065 -2.87346,1.30386 -5.35367,2.37065 -5.51161,2.37065 -0.15795,0 -0.62162,-11.73018 -1.0304,-26.06707 z"
     id="path819"
     inkscape:connector-curvature="0" />
  <path
     style="fill:#ffffff;fill-opacity:1;stroke:#000000;stroke-width:0;stroke-miterlimit:4;stroke-dasharray:none;stroke-opacity:0"
     d="m 819.38379,850.58427 c -0.81054,-28.42767 -2.52662,-43.64337 -7.40455,-65.65254 -6.28046,-28.3374 -16.08568,-51.78799 -27.45518,-65.66296 -2.37021,-2.89254 -4.30948,-5.76195 -4.30948,-6.37649 0,-1.41692 -20.50756,-16.07686 -27.24001,-19.47265 -8.90483,-4.49153 -20.17424,-6.54308 -35.68051,-6.49546 -31.02335,0.0953 -57.49105,11.24328 -81.02647,34.12785 -9.48621,9.22388 -22.08938,24.20027 -24.89502,29.58285 -0.90926,1.74441 -2.57924,4.25029 -3.71108,5.56862 -1.13183,1.31834 -4.14245,6.90838 -6.69025,12.42232 -2.54781,5.51394 -4.81729,9.47061 -5.0433,8.79259 -0.72259,-2.16776 6.93881,-26.65841 13.76016,-43.98614 25.20134,-64.01693 61.88819,-112.37402 112.69953,-148.54971 5.43813,-3.87174 9.88751,-7.72547 9.88751,-8.56384 0,-1.79457 0.10547,-1.75969 -19.17578,-6.3406 -35.8262,-8.51171 -58.72582,-20.17836 -58.72582,-29.919 0,-3.2421 0.82204,-4.20031 6.29206,-7.33432 8.92319,-5.1125 24.04644,-10.36298 38.35139,-13.31481 16.29517,-3.36251 45.73741,-2.80527 63.2203,1.19654 17.56204,4.01993 37.81976,11.19153 52.71696,18.66276 10.53981,5.28591 13.7636,6.43741 14.54992,5.19708 0.55557,-0.87636 1.00505,-2.1327 0.99884,-2.79187 -0.006,-0.65917 -7.34792,-9.55793 -16.31492,-19.77502 -33.80609,-38.51904 -49.48637,-63.71834 -41.54497,-66.76574 6.68856,-2.56664 33.90399,5.7414 47.6843,14.55657 18.7945,12.02269 35.76575,36.80754 46.53146,67.95464 l 3.8414,11.11385 14.45721,3.22464 c 35.10853,7.83085 61.21166,19.75728 88.61259,40.48679 10.64398,8.05245 34.40162,31.56478 44.34252,43.88467 27.0609,33.53683 51.0147,81.49135 63.5471,127.21822 2.2928,8.36603 4.1688,15.9816 4.1688,16.92349 0,0.94189 -3.5417,-5.18616 -7.8704,-13.6179 -9.0208,-17.57091 -18.9533,-30.88579 -34.521,-46.27671 -15.0331,-14.86224 -34.8968,-26.15286 -55.41215,-31.49643 -10.69063,-2.78455 -42.38901,-2.52101 -50.94763,0.42359 -9.83633,3.38419 -17.87649,7.77689 -25.72894,14.05688 -6.82622,5.45924 -19.79201,19.49155 -20.726,22.43084 -0.2487,0.78262 -1.38534,2.5016 -2.52591,3.81993 -3.08893,3.57041 -15.04783,33.32285 -17.89936,44.53167 -6.06326,23.83345 -9.65104,55.21867 -9.67159,84.60521 -0.007,9.72271 -0.22314,17.67766 -0.48074,17.67766 -0.25759,0 -2.81936,-1.06679 -5.69281,-2.37065 -3.71727,-1.68675 -7.81752,-2.37065 -14.21309,-2.37065 -6.39556,0 -10.49581,0.6839 -14.21308,2.37065 -2.87346,1.30386 -5.35367,2.37065 -5.51161,2.37065 -0.15795,0 -0.62162,-11.73018 -1.0304,-26.06707 z"
     id="path825"
     inkscape:connector-curvature="0" />
  <path
     style="fill:#ffffff;fill-opacity:1;stroke:#000000;stroke-width:0;stroke-miterlimit:4;stroke-dasharray:none;stroke-opacity:0"
     d="m 819.38379,850.58427 c -0.81054,-28.42767 -2.52662,-43.64337 -7.40455,-65.65254 -6.28046,-28.3374 -16.08568,-51.78799 -27.45518,-65.66296 -2.37021,-2.89254 -4.30948,-5.76195 -4.30948,-6.37649 0,-1.41692 -20.50756,-16.07686 -27.24001,-19.47265 -8.90483,-4.49153 -20.17424,-6.54308 -35.68051,-6.49546 -31.02335,0.0953 -57.49105,11.24328 -81.02647,34.12785 -9.48621,9.22388 -22.08938,24.20027 -24.89502,29.58285 -0.90926,1.74441 -2.57924,4.25029 -3.71108,5.56862 -1.13183,1.31834 -4.14245,6.90838 -6.69025,12.42232 -2.54781,5.51394 -4.81729,9.47061 -5.0433,8.79259 -0.72259,-2.16776 6.93881,-26.65841 13.76016,-43.98614 25.20134,-64.01693 61.88819,-112.37402 112.69953,-148.54971 5.43813,-3.87174 9.88751,-7.72547 9.88751,-8.56384 0,-1.79457 0.10547,-1.75969 -19.17578,-6.3406 -35.8262,-8.51171 -58.72582,-20.17836 -58.72582,-29.919 0,-3.2421 0.82204,-4.20031 6.29206,-7.33432 8.92319,-5.1125 24.04644,-10.36298 38.35139,-13.31481 16.29517,-3.36251 45.73741,-2.80527 63.2203,1.19654 17.56204,4.01993 37.81976,11.19153 52.71696,18.66276 10.53981,5.28591 13.7636,6.43741 14.54992,5.19708 0.55557,-0.87636 1.00505,-2.1327 0.99884,-2.79187 -0.006,-0.65917 -7.34792,-9.55793 -16.31492,-19.77502 -33.80609,-38.51904 -49.48637,-63.71834 -41.54497,-66.76574 6.68856,-2.56664 33.90399,5.7414 47.6843,14.55657 18.7945,12.02269 35.76575,36.80754 46.53146,67.95464 l 3.8414,11.11385 14.45721,3.22464 c 35.10853,7.83085 61.21166,19.75728 88.61259,40.48679 10.64398,8.05245 34.40162,31.56478 44.34252,43.88467 27.0609,33.53683 51.0147,81.49135 63.5471,127.21822 2.2928,8.36603 4.1688,15.9816 4.1688,16.92349 0,0.94189 -3.5417,-5.18616 -7.8704,-13.6179 -9.0208,-17.57091 -18.9533,-30.88579 -34.521,-46.27671 -15.0331,-14.86224 -34.8968,-26.15286 -55.41215,-31.49643 -10.69063,-2.78455 -42.38901,-2.52101 -50.94763,0.42359 -9.83633,3.38419 -17.87649,7.77689 -25.72894,14.05688 -6.82622,5.45924 -19.79201,19.49155 -20.726,22.43084 -0.2487,0.78262 -1.38534,2.5016 -2.52591,3.81993 -3.08893,3.57041 -15.04783,33.32285 -17.89936,44.53167 -6.06326,23.83345 -9.65104,55.21867 -9.67159,84.60521 -0.007,9.72271 -0.22314,17.67766 -0.48074,17.67766 -0.25759,0 -2.81936,-1.06679 -5.69281,-2.37065 -3.71727,-1.68675 -7.81752,-2.37065 -14.21309,-2.37065 -6.39556,0 -10.49581,0.6839 -14.21308,2.37065 -2.87346,1.30386 -5.35367,2.37065 -5.51161,2.37065 -0.15795,0 -0.62162,-11.73018 -1.0304,-26.06707 z"
     id="path827"
     inkscape:connector-curvature="0" />
  <path
     style="fill:#ffffff;fill-opacity:1;stroke:#000000;stroke-width:0;stroke-miterlimit:4;stroke-dasharray:none;stroke-opacity:0"
     d="m 819.38379,850.58427 c -0.81054,-28.42767 -2.52662,-43.64337 -7.40455,-65.65254 -6.28046,-28.3374 -16.08568,-51.78799 -27.45518,-65.66296 -2.37021,-2.89254 -4.30948,-5.76195 -4.30948,-6.37649 0,-1.41692 -20.50756,-16.07686 -27.24001,-19.47265 -8.90483,-4.49153 -20.17424,-6.54308 -35.68051,-6.49546 -31.02335,0.0953 -57.49105,11.24328 -81.02647,34.12785 -9.48621,9.22388 -22.08938,24.20027 -24.89502,29.58285 -0.90926,1.74441 -2.57924,4.25029 -3.71108,5.56862 -1.13183,1.31834 -4.14245,6.90838 -6.69025,12.42232 -2.54781,5.51394 -4.81729,9.47061 -5.0433,8.79259 -0.72259,-2.16776 6.93881,-26.65841 13.76016,-43.98614 25.20134,-64.01693 61.88819,-112.37402 112.69953,-148.54971 5.43813,-3.87174 9.88751,-7.72547 9.88751,-8.56384 0,-1.79457 0.10547,-1.75969 -19.17578,-6.3406 -35.8262,-8.51171 -58.72582,-20.17836 -58.72582,-29.919 0,-3.2421 0.82204,-4.20031 6.29206,-7.33432 8.92319,-5.1125 24.04644,-10.36298 38.35139,-13.31481 16.29517,-3.36251 45.73741,-2.80527 63.2203,1.19654 17.56204,4.01993 37.81976,11.19153 52.71696,18.66276 10.53981,5.28591 13.7636,6.43741 14.54992,5.19708 0.55557,-0.87636 1.00505,-2.1327 0.99884,-2.79187 -0.006,-0.65917 -7.34792,-9.55793 -16.31492,-19.77502 -33.80609,-38.51904 -49.48637,-63.71834 -41.54497,-66.76574 6.68856,-2.56664 33.90399,5.7414 47.6843,14.55657 18.7945,12.02269 35.76575,36.80754 46.53146,67.95464 l 3.8414,11.11385 14.45721,3.22464 c 35.10853,7.83085 61.21166,19.75728 88.61259,40.48679 10.64398,8.05245 34.40162,31.56478 44.34252,43.88467 27.0609,33.53683 51.0147,81.49135 63.5471,127.21822 2.2928,8.36603 4.1688,15.9816 4.1688,16.92349 0,0.94189 -3.5417,-5.18616 -7.8704,-13.6179 -9.0208,-17.57091 -18.9533,-30.88579 -34.521,-46.27671 -15.0331,-14.86224 -34.8968,-26.15286 -55.41215,-31.49643 -10.69063,-2.78455 -42.38901,-2.52101 -50.94763,0.42359 -9.83633,3.38419 -17.87649,7.77689 -25.72894,14.05688 -6.82622,5.45924 -19.79201,19.49155 -20.726,22.43084 -0.2487,0.78262 -1.38534,2.5016 -2.52591,3.81993 -3.08893,3.57041 -15.04783,33.32285 -17.89936,44.53167 -6.06326,23.83345 -9.65104,55.21867 -9.67159,84.60521 -0.007,9.72271 -0.22314,17.67766 -0.48074,17.67766 -0.25759,0 -2.81936,-1.06679 -5.69281,-2.37065 -3.71727,-1.68675 -7.81752,-2.37065 -14.21309,-2.37065 -6.39556,0 -10.49581,0.6839 -14.21308,2.37065 -2.87346,1.30386 -5.35367,2.37065 -5.51161,2.37065 -0.15795,0 -0.62162,-11.73018 -1.0304,-26.06707 z"
     id="path829"
     inkscape:connector-curvature="0" />
  <path
     style="fill:#000000;fill-opacity:1;stroke:#000000;stroke-width:0;stroke-miterlimit:4;stroke-dasharray:none;stroke-opacity:0"
     d=""
     id="path855"
     inkscape:connector-curvature="0" />
  <path
     style="fill:#ffffff;fill-opacity:1;stroke:#000000;stroke-width:0;stroke-miterlimit:4;stroke-dasharray:none;stroke-opacity:0"
     d="m 682.7115,892.09984 c -13.41315,-2.94305 -25.12179,-12.19011 -31.07248,-24.53991 -3.05526,-6.34077 -3.90131,-9.96457 -3.88924,-16.65849 0.0111,-6.16413 1.20034,-11.27876 3.9046,-16.79281 7.46982,-15.23119 23.61137,-25.14188 41.02977,-25.19174 13.273,-0.038 24.8336,5.03914 34.12273,14.98586 7.58903,8.12625 11.89094,19.22543 11.23066,28.97572 -0.37835,5.587 -2.66903,12.87655 -5.63821,17.94223 -2.89667,4.94199 -11.48647,13.68267 -15.74546,16.02205 -10.04816,5.51926 -23.35462,7.5802 -33.94237,5.25709 z"
     id="path861"
     inkscape:connector-curvature="0" />
  <path
     style="fill:#ffffff;fill-opacity:1;stroke:#000000;stroke-width:0;stroke-miterlimit:4;stroke-dasharray:none;stroke-opacity:0"
     d="m 978.23278,894.46782 c -18.42928,-4.11379 -32.51141,-17.64529 -35.92782,-34.52298 -1.17415,-5.80056 -1.17352,-8.33973 0.004,-14.13274 3.26843,-16.08605 16.69566,-29.43826 33.81761,-33.62864 8.12544,-1.9886 11.51683,-2.12512 18.12246,-0.72951 13.84707,2.92557 23.94427,9.38517 31.02117,19.84563 15.7928,23.34336 2.1615,54.78929 -27.03366,62.36403 -6.54707,1.69865 -14.55416,2.02056 -20.00329,0.80421 z"
     id="path863"
     inkscape:connector-curvature="0" />
  <path
     style="fill:#ffffff;fill-opacity:1;stroke:#000000;stroke-width:0;stroke-miterlimit:4;stroke-dasharray:none;stroke-opacity:0"
     d="m 835.72134,988.89817 c -10.38997,-1.90396 -19.07896,-5.23834 -31.01083,-11.90034 -12.89349,-7.1989 -30.58564,-18.72037 -40.60723,-26.44421 -1.6526,-1.27369 -3.74246,-2.71274 -4.64414,-3.19789 -1.41686,-0.76234 -1.7322,-1.10219 -2.32305,-2.50364 -0.53841,-1.27709 -0.6571,-2.01973 -0.55871,-3.49581 0.18194,-2.72926 1.31605,-4.79961 4.38868,-8.01166 2.1775,-2.27631 12.71182,-13.71082 16.99401,-18.44621 3.47313,-3.8407 16.95815,-15.89256 24.95271,-22.30078 9.029,-7.2374 13.25836,-10.05538 21.12332,-14.07426 6.85448,-3.50254 11.05922,-4.51285 17.82748,-4.28358 5.17783,0.1754 6.68866,0.66787 15.43051,5.02977 5.27566,2.63239 7.3394,3.84862 10.33694,6.09188 2.0599,1.54156 6.91376,5.16778 10.78637,8.05825 11.90933,8.88899 15.50047,12.14481 24.8742,22.55163 6.96041,7.72752 9.24069,9.91593 13.54767,13.00189 3.06222,2.19408 4.73822,4.09953 7.04388,8.00823 l 1.55367,2.63388 -1.08097,1.95741 c -2.71945,4.92435 -5.45502,7.93986 -11.18235,12.3267 -13.09533,10.03032 -32.66326,22.8759 -41.94701,27.53655 -5.37758,2.69967 -13.54037,5.59234 -19.92484,7.06083 -4.88793,1.12427 -10.80374,1.27667 -15.58031,0.40136 z"
     id="path873"
     inkscape:connector-curvature="0" />
  <path
     style="fill:#ffffff;fill-opacity:1;stroke:#000000;stroke-width:0;stroke-miterlimit:4;stroke-dasharray:none;stroke-opacity:0"
     d="m 819.40374,859.1062 c -0.0495,-19.13646 -1.14588,-36.05953 -3.30376,-50.99494 -2.46454,-17.05792 -7.8349,-39.71597 -11.95392,-50.43474 -1.37624,-3.58134 -3.16496,-8.53216 -3.97492,-11.00181 -0.80996,-2.46965 -1.82274,-4.89658 -2.25062,-5.39319 -1.22792,-1.42513 -8.73185,-14.77963 -8.73185,-15.53977 0,-0.37638 -2.13614,-3.13496 -4.74697,-6.13018 -3.2421,-3.59921 -6.82446,-8.56108 -7.56725,-9.10757 -0.38977,-0.002 -3.65561,-3.11236 -5.9627,-4.97017 -12.45378,-10.0286 -21.97238,-14.63124 -35.95458,-17.38553 -7.38223,-1.4542 -26.24829,-1.44596 -34.75242,0.0152 -25.91255,4.45217 -45.50704,14.92409 -65.66086,35.09125 -7.52053,7.52553 -17.8453,19.8003 -18.70574,20.9552 -0.48688,0.65351 -5.62176,7.09919 -8.33177,13.07162 -2.96088,6.52533 -8.18992,26.20896 -8.58652,27.45366 -1.3846,4.34547 -4.42837,-1.76429 -4.45418,-3.30843 -0.0138,-0.82396 -5.72359,2.41463 -4.40225,-2.64307 7.15649,-27.39278 28.07954,-69.4368 43.44257,-96.16893 5.26295,-9.1577 18.66365,-29.32781 24.12864,-36.3173 7.61111,-9.73432 17.61457,-21.04955 26.34897,-29.80418 12.73984,-12.76933 22.50349,-20.87251 39.05367,-32.41192 7.51916,-5.24264 9.41102,-7.0085 8.9093,-8.31595 -0.42248,-1.10097 -1.88168,-1.54268 -15.26632,-4.62127 -26.59605,-6.11731 -45.86026,-13.33711 -55.7296,-20.88621 -4.98549,-3.81343 -6.71696,-6.20361 -7.05692,-9.74162 -0.25028,-2.60469 -0.11216,-2.94541 2.04596,-5.04739 6.08531,-5.92696 32.25691,-15.19917 50.00634,-17.71649 7.09251,-1.0059 34.82664,-0.7856 43.60794,0.34639 20.45975,2.63745 48.2023,11.69958 68.89049,22.50313 12.98465,6.71652 13.20121,5.15302 13.20121,5.15302 1.02138,-0.1023 0.20069,-1.36182 -1.36003,-4.47486 -0.48445,-0.90635 -3.65987,-4.75565 -7.0565,-8.554 -33.17931,-37.10348 -50.10114,-60.11855 -52.68225,-71.65219 -1.16981,-5.22724 0.68451,-6.83386 7.88749,-6.83386 2.58611,0.11313 3.99778,0.30485 6.30358,1.03831 5.83047,1.49323 28.59821,8.91274 38.00831,15.34111 7.20552,4.92233 21.07125,20.17545 28.0157,30.8189 5.29394,8.11378 15.03683,30.02021 17.78625,39.99154 2.11752,7.67962 1.47382,7.21342 13.22349,9.57706 28.43628,5.72043 52.54434,15.06806 74.77784,28.99424 23.25936,14.56874 46.64424,36.49894 67.73924,63.52546 3.3847,4.33644 14.7473,21.56508 20.1708,30.58416 11.9002,19.78957 41.7268,83.97853 48.247,110.48436 2.6227,10.66177 -5.0802,-0.7129 -5.1106,1.81636 -0.01,0.732 -4.255,4.61681 -4.4778,0.75189 -8.8377,-24.49931 -14.5644,-37.48887 -28.8766,-54.95032 -4.919,-6.00132 -22.8409,-23.29478 -23.765,-23.29478 -0.2794,0 -2.8415,-1.52538 -5.6935,-3.38973 -11.2227,-7.33628 -31.46038,-18.59387 -42.252,-19.72544 -2.60687,-0.27335 -12.1677,-1.59746 -16.91172,-2.1595 l -18.06385,2.74998 -10.35383,3.27424 c -3.16474,1.0008 -7.62961,2.8915 -9.9968,3.97737 -5.68659,2.60853 -15.54986,9.40721 -21.27256,14.66303 -5.42032,4.9781 -13.2921,14.46251 -15.6128,18.81128 -0.90162,1.68954 -2.27675,3.63079 -3.05585,4.31389 -0.77909,0.68309 -1.56358,1.89655 -1.7433,2.69659 -0.17971,0.80003 -2.93912,7.65677 -6.132,15.2372 -7.90072,18.75759 -11.4763,32.29214 -14.9602,56.62847 -2.6353,18.40854 -3.54871,31.70778 -3.59093,52.2839 -0.0215,10.46425 -0.57903,5.54297 -0.66681,5.543 -0.0878,2e-5 -6.97723,-5.12055 -10.18529,-6.62473 -9.72337,-4.55905 -12.9316,-3.88745 -22.07261,0.30865 -2.63667,1.21034 -7.45192,4.52814 -8.11108,4.78344 -1.18163,0.45765 -0.18315,-0.21436 -0.39773,-3.18379 z"
     id="path875"
     inkscape:connector-curvature="0"
     sodipodi:nodetypes="cssscsccccccsssccscsscssscsscccscccssssssssccsscsccssscscssccssccc" />
  <path
     style="color:#000000;font-style:normal;font-variant:normal;font-weight:normal;font-stretch:normal;font-size:medium;line-height:normal;font-family:sans-serif;font-variant-ligatures:normal;font-variant-position:normal;font-variant-caps:normal;font-variant-numeric:normal;font-variant-alternates:normal;font-feature-settings:normal;text-indent:0;text-align:start;text-decoration:none;text-decoration-line:none;text-decoration-style:solid;text-decoration-color:#000000;letter-spacing:normal;word-spacing:normal;text-transform:none;writing-mode:lr-tb;direction:ltr;text-orientation:mixed;dominant-baseline:auto;baseline-shift:baseline;text-anchor:start;white-space:normal;shape-padding:0;clip-rule:nonzero;display:inline;overflow:visible;visibility:visible;opacity:1;isolation:auto;mix-blend-mode:normal;color-interpolation:sRGB;color-interpolation-filters:linearRGB;solid-color:#000000;solid-opacity:1;vector-effect:none;fill:#ffffff;fill-opacity:1;fill-rule:nonzero;stroke:none;stroke-width:10;stroke-linecap:butt;stroke-linejoin:miter;stroke-miterlimit:4;stroke-dasharray:none;stroke-dashoffset:0;stroke-opacity:1;color-rendering:auto;image-rendering:auto;shape-rendering:auto;text-rendering:auto;enable-background:accumulate"
     d="m 589.89844,779.1875 c -12.64645,58.77914 -13.13248,116.52181 19.28515,161.31641 27.25226,43.88877 70.28163,68.23209 101.32813,83.17769 l 0.0391,0.018 0.0371,0.018 c 40.10092,18.4793 89.7538,29.9377 131.88281,28.8477 41.01013,-1.0612 65.77681,-6.0585 94.79102,-17.2344 l 0.0117,-0.01 0.0137,-0 c 59.57662,-23.3257 104.30449,-53.72907 130.42379,-96.98827 l 0.1036,-0.17187 0.092,-0.18164 c 17.9333,-35.9865 39.3937,-79.44821 25.0079,-152.76954 l -9.8145,1.92579 c 13.8591,70.63637 -6.1169,110.20646 -24.0254,146.14062 -24.5888,40.64664 -67.07305,69.88231 -125.42772,92.73051 -0.002,7e-4 -0.004,0 -0.006,0 -28.17625,10.8503 -51.12154,15.5157 -91.42773,16.5586 -40.07809,1.037 -88.74531,-10.1084 -127.40039,-27.9141 -30.46006,-14.66612 -71.51373,-38.16204 -97.13477,-79.42378 l -0.0957,-0.15625 -0.10937,-0.14844 C 587.27967,893.44541 587.27183,838.934 599.67383,781.29102 Z"
     id="path889"
     inkscape:connector-curvature="0" />
  <path
     style="fill:#ffffff;stroke-width:0.99999994;fill-opacity:1"
     d="m 762.9924,1716.1821 c 0.096,-29.7909 23.096,-672.0119 24.104,-673.0386 0.5122,-0.5218 6.6529,1.1992 13.646,3.8245 10.7323,4.029 17.2401,4.7732 41.7385,4.7732 24.4983,0 31.0062,-0.7442 41.7384,-4.7732 6.9931,-2.6253 13.1209,-4.3595 13.6173,-3.8539 0.9472,0.965 24.0791,647.7554 24.1499,675.258 l 0.041,15.8776 h -79.5466 -79.5465 z"
     id="path865"
     inkscape:connector-curvature="0"
     sodipodi:nodetypes="cccsccccccc" />
  <path
     style="fill:#ffffff;stroke-width:0.99999988;fill-opacity:1"
     d="m 1123.6204,1270.1973 c -104.4657,-168.1112 -152.32613,-246.2248 -153.96311,-249.0238 -2.93518,-5.0194 12.2366,-12.4308 28.86303,-23.23936 19.28338,-12.53578 33.39648,-21.50947 42.00638,-35.42711 3.2563,-5.26386 21.0325,-26.82989 22.9037,-26.75875 3.1467,-5.60397 -7.6496,-18.07868 7.3414,0.38846 13.363,16.46142 91.2608,99.85046 116.4375,140.50916 103.7288,167.5157 109.9013,301.9977 123.1051,437.8519 2.561,26.3497 4.7933,62.3988 3.8234,61.7463 -0.3185,-0.2149 -86.0514,-137.9356 -190.5174,-306.0468 z M 0.19326406,862.10081 C 3.2637341,860.8287 581.95148,811.64114 589.51913,811.96734 c 2.94682,0.12702 0.34939,9.99702 0.51399,27.56249 0.16426,17.50813 -0.18897,35.77149 5.93345,54.16532 l 5.71587,19.57966 8.29573,17.48839 c 7.51657,15.84583 18.93654,11.50668 8.79471,13.81631 -47.24483,10.75943 -151.7247,29.00248 -224.50201,28.7709 C 245.1856,972.87627 145.57728,926.01653 44.868134,883.54632 12.890944,870.06122 -1.8920259,862.96488 0.19326406,862.10081 Z M 871.9742,608.65059 c 2.58572,-46.40605 -4.03456,-48.57488 23.71505,-121.43146 77.13643,-202.52147 209.11275,-333.43159 320.37305,-431.19397 28.6,-25.13008 85.6643,-58.2206099 86.4499,-55.91054993 0.2276,0.66928 -74.103,151.72300993 -165.1792,335.67495993 -91.0761,183.95197 -166.96998,337.47226 -168.65306,341.15622 l -3.06056,6.69793 L 937.75,671.17003 c -23.02744,-10.30663 -30.52153,-12.65378 -43.13499,-13.51068 -8.3961,-0.57034 -16.15737,-1.44167 -17.2472,-1.93626 -1.08991,-0.49463 -0.3641,-6.42511 -3.01754,-20.43792 z"
     id="path865-7"
     inkscape:connector-curvature="0"
     sodipodi:nodetypes="scccccsccscccccssssccsscscccsscc" />
</svg>
